<?xml version="1.0" encoding="UTF-8" standalone="no"?>
<!DOCTYPE svg PUBLIC "-//W3C//DTD SVG 1.1//EN"
 "http://www.w3.org/Graphics/SVG/1.1/DTD/svg11.dtd">
<!-- Generated by graphviz version 2.38.0 (20140413.2041)
 -->
<!-- Title: %3 Pages: 1 -->
<svg width="642pt" height="332pt"
 viewBox="0.00 0.00 642.00 332.00" xmlns="http://www.w3.org/2000/svg" xmlns:xlink="http://www.w3.org/1999/xlink">
<g id="graph0" class="graph" transform="scale(1 1) rotate(0) translate(4 328)">
<title>%3</title>
<polygon fill="white" stroke="none" points="-4,4 -4,-328 638,-328 638,4 -4,4"/>
<!-- n0 -->
<g id="node1" class="node"><title>n0</title>
<ellipse fill="none" stroke="black" cx="311" cy="-306" rx="83.3857" ry="18"/>
<text text-anchor="middle" x="311" y="-302.3" font-family="Times New Roman,serif" font-size="14.00">INSTRUCCIONES</text>
</g>
<!-- n1 -->
<g id="node2" class="node"><title>n1</title>
<ellipse fill="none" stroke="black" cx="150" cy="-234" rx="67.6881" ry="18"/>
<text text-anchor="middle" x="150" y="-230.3" font-family="Times New Roman,serif" font-size="14.00">ASIGNACION</text>
</g>
<!-- n0&#45;&gt;n1 -->
<g id="edge1" class="edge"><title>n0&#45;&gt;n1</title>
<path fill="none" stroke="black" d="M275.668,-289.638C251.348,-279.064 218.896,-264.955 193.062,-253.723"/>
<polygon fill="black" stroke="black" points="194.438,-250.504 183.871,-249.727 191.646,-256.924 194.438,-250.504"/>
</g>
<!-- n6 -->
<g id="node7" class="node"><title>n6</title>
<ellipse fill="none" stroke="black" cx="422" cy="-234" rx="39.7935" ry="18"/>
<text text-anchor="middle" x="422" y="-230.3" font-family="Times New Roman,serif" font-size="14.00">WHILE</text>
</g>
<!-- n0&#45;&gt;n6 -->
<g id="edge6" class="edge"><title>n0&#45;&gt;n6</title>
<path fill="none" stroke="black" d="M336.745,-288.765C352.997,-278.516 374.082,-265.219 391.217,-254.413"/>
<polygon fill="black" stroke="black" points="393.179,-257.313 399.771,-249.018 389.445,-251.392 393.179,-257.313"/>
</g>
<!-- n2 -->
<g id="node3" class="node"><title>n2</title>
<ellipse fill="none" stroke="black" cx="27" cy="-162" rx="27" ry="18"/>
<text text-anchor="middle" x="27" y="-158.3" font-family="Times New Roman,serif" font-size="14.00">a</text>
</g>
<!-- n1&#45;&gt;n2 -->
<g id="edge2" class="edge"><title>n1&#45;&gt;n2</title>
<path fill="none" stroke="black" d="M122.702,-217.465C102.817,-206.148 75.936,-190.85 55.7259,-179.348"/>
<polygon fill="black" stroke="black" points="57.381,-176.263 46.9587,-174.359 53.9186,-182.347 57.381,-176.263"/>
</g>
<!-- n3 -->
<g id="node4" class="node"><title>n3</title>
<ellipse fill="none" stroke="black" cx="99" cy="-162" rx="27" ry="18"/>
<text text-anchor="middle" x="99" y="-158.3" font-family="Times New Roman,serif" font-size="14.00">=</text>
</g>
<!-- n1&#45;&gt;n3 -->
<g id="edge3" class="edge"><title>n1&#45;&gt;n3</title>
<path fill="none" stroke="black" d="M137.654,-216.055C131.335,-207.381 123.531,-196.669 116.593,-187.147"/>
<polygon fill="black" stroke="black" points="119.25,-184.851 110.533,-178.829 113.593,-188.973 119.25,-184.851"/>
</g>
<!-- n4 -->
<g id="node5" class="node"><title>n4</title>
<ellipse fill="none" stroke="black" cx="202" cy="-162" rx="57.6901" ry="18"/>
<text text-anchor="middle" x="202" y="-158.3" font-family="Times New Roman,serif" font-size="14.00">PRIMITIVO</text>
</g>
<!-- n1&#45;&gt;n4 -->
<g id="edge4" class="edge"><title>n1&#45;&gt;n4</title>
<path fill="none" stroke="black" d="M162.588,-216.055C168.847,-207.629 176.535,-197.28 183.454,-187.966"/>
<polygon fill="black" stroke="black" points="186.375,-189.904 189.528,-179.789 180.755,-185.729 186.375,-189.904"/>
</g>
<!-- n5 -->
<g id="node6" class="node"><title>n5</title>
<ellipse fill="none" stroke="black" cx="202" cy="-90" rx="27" ry="18"/>
<text text-anchor="middle" x="202" y="-86.3" font-family="Times New Roman,serif" font-size="14.00">0</text>
</g>
<!-- n4&#45;&gt;n5 -->
<g id="edge5" class="edge"><title>n4&#45;&gt;n5</title>
<path fill="none" stroke="black" d="M202,-143.697C202,-135.983 202,-126.712 202,-118.112"/>
<polygon fill="black" stroke="black" points="205.5,-118.104 202,-108.104 198.5,-118.104 205.5,-118.104"/>
</g>
<!-- n7 -->
<g id="node8" class="node"><title>n7</title>
<ellipse fill="none" stroke="black" cx="307" cy="-162" rx="29.4969" ry="18"/>
<text text-anchor="middle" x="307" y="-158.3" font-family="Times New Roman,serif" font-size="14.00">while</text>
</g>
<!-- n6&#45;&gt;n7 -->
<g id="edge7" class="edge"><title>n6&#45;&gt;n7</title>
<path fill="none" stroke="black" d="M399.28,-219.17C381.002,-208.044 355.213,-192.347 335.543,-180.374"/>
<polygon fill="black" stroke="black" points="337.346,-177.374 326.984,-175.164 333.706,-183.354 337.346,-177.374"/>
</g>
<!-- n8 -->
<g id="node9" class="node"><title>n8</title>
<ellipse fill="none" stroke="black" cx="422" cy="-162" rx="68.4888" ry="18"/>
<text text-anchor="middle" x="422" y="-158.3" font-family="Times New Roman,serif" font-size="14.00">RELACIONAL</text>
</g>
<!-- n6&#45;&gt;n8 -->
<g id="edge8" class="edge"><title>n6&#45;&gt;n8</title>
<path fill="none" stroke="black" d="M422,-215.697C422,-207.983 422,-198.712 422,-190.112"/>
<polygon fill="black" stroke="black" points="425.5,-190.104 422,-180.104 418.5,-190.104 425.5,-190.104"/>
</g>
<!-- n14 -->
<g id="node15" class="node"><title>n14</title>
<ellipse fill="none" stroke="black" cx="535" cy="-162" rx="27" ry="18"/>
<text text-anchor="middle" x="535" y="-158.3" font-family="Times New Roman,serif" font-size="14.00">end</text>
</g>
<!-- n6&#45;&gt;n14 -->
<g id="edge14" class="edge"><title>n6&#45;&gt;n14</title>
<path fill="none" stroke="black" d="M444.596,-219.003C462.61,-207.843 487.923,-192.163 507.183,-180.232"/>
<polygon fill="black" stroke="black" points="509.167,-183.12 515.825,-174.878 505.481,-177.169 509.167,-183.12"/>
</g>
<!-- n15 -->
<g id="node16" class="node"><title>n15</title>
<ellipse fill="none" stroke="black" cx="607" cy="-162" rx="27" ry="18"/>
<text text-anchor="middle" x="607" y="-158.3" font-family="Times New Roman,serif" font-size="14.00">;</text>
</g>
<!-- n6&#45;&gt;n15 -->
<g id="edge15" class="edge"><title>n6&#45;&gt;n15</title>
<path fill="none" stroke="black" d="M453.448,-222.827C483.842,-212.758 531.028,-196.499 571,-180 572.821,-179.248 574.682,-178.453 576.553,-177.634"/>
<polygon fill="black" stroke="black" points="578.176,-180.741 585.836,-173.422 575.284,-174.367 578.176,-180.741"/>
</g>
<!-- n9 -->
<g id="node10" class="node"><title>n9</title>
<ellipse fill="none" stroke="black" cx="321" cy="-90" rx="55.7903" ry="18"/>
<text text-anchor="middle" x="321" y="-86.3" font-family="Times New Roman,serif" font-size="14.00">VARIABLE</text>
</g>
<!-- n8&#45;&gt;n9 -->
<g id="edge9" class="edge"><title>n8&#45;&gt;n9</title>
<path fill="none" stroke="black" d="M398.829,-144.941C384.905,-135.29 367.014,-122.891 351.898,-112.414"/>
<polygon fill="black" stroke="black" points="353.582,-109.323 343.369,-106.503 349.594,-115.076 353.582,-109.323"/>
</g>
<!-- n11 -->
<g id="node12" class="node"><title>n11</title>
<ellipse fill="none" stroke="black" cx="422" cy="-90" rx="27" ry="18"/>
<text text-anchor="middle" x="422" y="-86.3" font-family="Times New Roman,serif" font-size="14.00">&lt;</text>
</g>
<!-- n8&#45;&gt;n11 -->
<g id="edge11" class="edge"><title>n8&#45;&gt;n11</title>
<path fill="none" stroke="black" d="M422,-143.697C422,-135.983 422,-126.712 422,-118.112"/>
<polygon fill="black" stroke="black" points="425.5,-118.104 422,-108.104 418.5,-118.104 425.5,-118.104"/>
</g>
<!-- n12 -->
<g id="node13" class="node"><title>n12</title>
<ellipse fill="none" stroke="black" cx="525" cy="-90" rx="57.6901" ry="18"/>
<text text-anchor="middle" x="525" y="-86.3" font-family="Times New Roman,serif" font-size="14.00">PRIMITIVO</text>
</g>
<!-- n8&#45;&gt;n12 -->
<g id="edge12" class="edge"><title>n8&#45;&gt;n12</title>
<path fill="none" stroke="black" d="M445.63,-144.941C459.731,-135.358 477.819,-123.065 493.166,-112.635"/>
<polygon fill="black" stroke="black" points="495.531,-115.259 501.835,-106.743 491.597,-109.47 495.531,-115.259"/>
</g>
<!-- n10 -->
<g id="node11" class="node"><title>n10</title>
<ellipse fill="none" stroke="black" cx="321" cy="-18" rx="27" ry="18"/>
<text text-anchor="middle" x="321" y="-14.3" font-family="Times New Roman,serif" font-size="14.00">a</text>
</g>
<!-- n9&#45;&gt;n10 -->
<g id="edge10" class="edge"><title>n9&#45;&gt;n10</title>
<path fill="none" stroke="black" d="M321,-71.6966C321,-63.9827 321,-54.7125 321,-46.1124"/>
<polygon fill="black" stroke="black" points="324.5,-46.1043 321,-36.1043 317.5,-46.1044 324.5,-46.1043"/>
</g>
<!-- n13 -->
<g id="node14" class="node"><title>n13</title>
<ellipse fill="none" stroke="black" cx="525" cy="-18" rx="27" ry="18"/>
<text text-anchor="middle" x="525" y="-14.3" font-family="Times New Roman,serif" font-size="14.00">10</text>
</g>
<!-- n12&#45;&gt;n13 -->
<g id="edge13" class="edge"><title>n12&#45;&gt;n13</title>
<path fill="none" stroke="black" d="M525,-71.6966C525,-63.9827 525,-54.7125 525,-46.1124"/>
<polygon fill="black" stroke="black" points="528.5,-46.1043 525,-36.1043 521.5,-46.1044 528.5,-46.1043"/>
</g>
</g>
</svg>
