<?xml version="1.0" encoding="UTF-8" standalone="no"?>
<!DOCTYPE svg PUBLIC "-//W3C//DTD SVG 1.1//EN"
 "http://www.w3.org/Graphics/SVG/1.1/DTD/svg11.dtd">
<!-- Generated by graphviz version 2.38.0 (20140413.2041)
 -->
<!-- Title: %3 Pages: 1 -->
<svg width="402pt" height="332pt"
 viewBox="0.00 0.00 401.54 332.00" xmlns="http://www.w3.org/2000/svg" xmlns:xlink="http://www.w3.org/1999/xlink">
<g id="graph0" class="graph" transform="scale(1 1) rotate(0) translate(4 328)">
<title>%3</title>
<polygon fill="white" stroke="none" points="-4,4 -4,-328 397.542,-328 397.542,4 -4,4"/>
<!-- n0 -->
<g id="node1" class="node"><title>n0</title>
<ellipse fill="none" stroke="black" cx="176.697" cy="-306" rx="83.3857" ry="18"/>
<text text-anchor="middle" x="176.697" y="-302.3" font-family="Times New Roman,serif" font-size="14.00">INSTRUCCIONES</text>
</g>
<!-- n1 -->
<g id="node2" class="node"><title>n1</title>
<ellipse fill="none" stroke="black" cx="176.697" cy="-234" rx="37.8943" ry="18"/>
<text text-anchor="middle" x="176.697" y="-230.3" font-family="Times New Roman,serif" font-size="14.00">PRINT</text>
</g>
<!-- n0&#45;&gt;n1 -->
<g id="edge1" class="edge"><title>n0&#45;&gt;n1</title>
<path fill="none" stroke="black" d="M176.697,-287.697C176.697,-279.983 176.697,-270.712 176.697,-262.112"/>
<polygon fill="black" stroke="black" points="180.197,-262.104 176.697,-252.104 173.197,-262.104 180.197,-262.104"/>
</g>
<!-- n2 -->
<g id="node3" class="node"><title>n2</title>
<ellipse fill="none" stroke="black" cx="37.6967" cy="-162" rx="37.8943" ry="18"/>
<text text-anchor="middle" x="37.6967" y="-158.3" font-family="Times New Roman,serif" font-size="14.00">PRINT</text>
</g>
<!-- n1&#45;&gt;n2 -->
<g id="edge2" class="edge"><title>n1&#45;&gt;n2</title>
<path fill="none" stroke="black" d="M151.525,-220.324C129.187,-209.074 96.364,-192.545 71.6969,-180.122"/>
<polygon fill="black" stroke="black" points="73.1869,-176.954 62.6812,-175.582 70.0384,-183.206 73.1869,-176.954"/>
</g>
<!-- n3 -->
<g id="node4" class="node"><title>n3</title>
<ellipse fill="none" stroke="black" cx="120.697" cy="-162" rx="27" ry="18"/>
<text text-anchor="middle" x="120.697" y="-158.3" font-family="Times New Roman,serif" font-size="14.00">(</text>
</g>
<!-- n1&#45;&gt;n3 -->
<g id="edge3" class="edge"><title>n1&#45;&gt;n3</title>
<path fill="none" stroke="black" d="M163.708,-216.765C156.439,-207.677 147.252,-196.194 139.237,-186.175"/>
<polygon fill="black" stroke="black" points="141.828,-183.811 132.848,-178.189 136.362,-188.184 141.828,-183.811"/>
</g>
<!-- n4 -->
<g id="node5" class="node"><title>n4</title>
<ellipse fill="none" stroke="black" cx="232.697" cy="-162" rx="66.8882" ry="18"/>
<text text-anchor="middle" x="232.697" y="-158.3" font-family="Times New Roman,serif" font-size="14.00">ARITMETICA</text>
</g>
<!-- n1&#45;&gt;n4 -->
<g id="edge4" class="edge"><title>n1&#45;&gt;n4</title>
<path fill="none" stroke="black" d="M189.685,-216.765C196.482,-208.268 204.955,-197.677 212.579,-188.146"/>
<polygon fill="black" stroke="black" points="215.484,-190.119 218.998,-180.124 210.017,-185.746 215.484,-190.119"/>
</g>
<!-- n10 -->
<g id="node11" class="node"><title>n10</title>
<ellipse fill="none" stroke="black" cx="344.697" cy="-162" rx="27" ry="18"/>
<text text-anchor="middle" x="344.697" y="-158.3" font-family="Times New Roman,serif" font-size="14.00">)</text>
</g>
<!-- n1&#45;&gt;n10 -->
<g id="edge10" class="edge"><title>n1&#45;&gt;n10</title>
<path fill="none" stroke="black" d="M205.223,-222.11C232.096,-211.719 273.388,-195.409 308.697,-180 310.502,-179.212 312.352,-178.389 314.213,-177.548"/>
<polygon fill="black" stroke="black" points="315.857,-180.645 323.472,-173.278 312.925,-174.288 315.857,-180.645"/>
</g>
<!-- n5 -->
<g id="node6" class="node"><title>n5</title>
<ellipse fill="none" stroke="black" cx="129.697" cy="-90" rx="57.6901" ry="18"/>
<text text-anchor="middle" x="129.697" y="-86.3" font-family="Times New Roman,serif" font-size="14.00">PRIMITIVO</text>
</g>
<!-- n4&#45;&gt;n5 -->
<g id="edge5" class="edge"><title>n4&#45;&gt;n5</title>
<path fill="none" stroke="black" d="M209.324,-145.116C195.001,-135.382 176.492,-122.802 160.923,-112.222"/>
<polygon fill="black" stroke="black" points="162.86,-109.306 152.622,-106.58 158.925,-115.096 162.86,-109.306"/>
</g>
<!-- n7 -->
<g id="node8" class="node"><title>n7</title>
<ellipse fill="none" stroke="black" cx="232.697" cy="-90" rx="27" ry="18"/>
<text text-anchor="middle" x="232.697" y="-86.3" font-family="Times New Roman,serif" font-size="14.00">^</text>
</g>
<!-- n4&#45;&gt;n7 -->
<g id="edge7" class="edge"><title>n4&#45;&gt;n7</title>
<path fill="none" stroke="black" d="M232.697,-143.697C232.697,-135.983 232.697,-126.712 232.697,-118.112"/>
<polygon fill="black" stroke="black" points="236.197,-118.104 232.697,-108.104 229.197,-118.104 236.197,-118.104"/>
</g>
<!-- n8 -->
<g id="node9" class="node"><title>n8</title>
<ellipse fill="none" stroke="black" cx="335.697" cy="-90" rx="57.6901" ry="18"/>
<text text-anchor="middle" x="335.697" y="-86.3" font-family="Times New Roman,serif" font-size="14.00">PRIMITIVO</text>
</g>
<!-- n4&#45;&gt;n8 -->
<g id="edge8" class="edge"><title>n4&#45;&gt;n8</title>
<path fill="none" stroke="black" d="M256.069,-145.116C270.392,-135.382 288.902,-122.802 304.47,-112.222"/>
<polygon fill="black" stroke="black" points="306.468,-115.096 312.772,-106.58 302.534,-109.306 306.468,-115.096"/>
</g>
<!-- n6 -->
<g id="node7" class="node"><title>n6</title>
<ellipse fill="none" stroke="black" cx="129.697" cy="-18" rx="29.795" ry="18"/>
<text text-anchor="middle" x="129.697" y="-14.3" font-family="Times New Roman,serif" font-size="14.00">suma</text>
</g>
<!-- n5&#45;&gt;n6 -->
<g id="edge6" class="edge"><title>n5&#45;&gt;n6</title>
<path fill="none" stroke="black" d="M129.697,-71.6966C129.697,-63.9827 129.697,-54.7125 129.697,-46.1124"/>
<polygon fill="black" stroke="black" points="133.197,-46.1043 129.697,-36.1043 126.197,-46.1044 133.197,-46.1043"/>
</g>
<!-- n9 -->
<g id="node10" class="node"><title>n9</title>
<ellipse fill="none" stroke="black" cx="335.697" cy="-18" rx="27" ry="18"/>
<text text-anchor="middle" x="335.697" y="-14.3" font-family="Times New Roman,serif" font-size="14.00">3</text>
</g>
<!-- n8&#45;&gt;n9 -->
<g id="edge9" class="edge"><title>n8&#45;&gt;n9</title>
<path fill="none" stroke="black" d="M335.697,-71.6966C335.697,-63.9827 335.697,-54.7125 335.697,-46.1124"/>
<polygon fill="black" stroke="black" points="339.197,-46.1043 335.697,-36.1043 332.197,-46.1044 339.197,-46.1043"/>
</g>
</g>
</svg>
