<?xml version="1.0" encoding="UTF-8" standalone="no"?>
<!DOCTYPE svg PUBLIC "-//W3C//DTD SVG 1.1//EN"
 "http://www.w3.org/Graphics/SVG/1.1/DTD/svg11.dtd">
<!-- Generated by graphviz version 2.38.0 (20140413.2041)
 -->
<!-- Title: %3 Pages: 1 -->
<svg width="362pt" height="260pt"
 viewBox="0.00 0.00 361.70 260.00" xmlns="http://www.w3.org/2000/svg" xmlns:xlink="http://www.w3.org/1999/xlink">
<g id="graph0" class="graph" transform="scale(1 1) rotate(0) translate(4 256)">
<title>%3</title>
<polygon fill="white" stroke="none" points="-4,4 -4,-256 357.697,-256 357.697,4 -4,4"/>
<!-- n0 -->
<g id="node1" class="node"><title>n0</title>
<ellipse fill="none" stroke="black" cx="171.697" cy="-234" rx="83.3857" ry="18"/>
<text text-anchor="middle" x="171.697" y="-230.3" font-family="Times New Roman,serif" font-size="14.00">INSTRUCCIONES</text>
</g>
<!-- n1 -->
<g id="node2" class="node"><title>n1</title>
<ellipse fill="none" stroke="black" cx="171.697" cy="-162" rx="37.8943" ry="18"/>
<text text-anchor="middle" x="171.697" y="-158.3" font-family="Times New Roman,serif" font-size="14.00">PRINT</text>
</g>
<!-- n0&#45;&gt;n1 -->
<g id="edge1" class="edge"><title>n0&#45;&gt;n1</title>
<path fill="none" stroke="black" d="M171.697,-215.697C171.697,-207.983 171.697,-198.712 171.697,-190.112"/>
<polygon fill="black" stroke="black" points="175.197,-190.104 171.697,-180.104 168.197,-190.104 175.197,-190.104"/>
</g>
<!-- n2 -->
<g id="node3" class="node"><title>n2</title>
<ellipse fill="none" stroke="black" cx="37.6967" cy="-90" rx="37.8943" ry="18"/>
<text text-anchor="middle" x="37.6967" y="-86.3" font-family="Times New Roman,serif" font-size="14.00">PRINT</text>
</g>
<!-- n1&#45;&gt;n2 -->
<g id="edge2" class="edge"><title>n1&#45;&gt;n2</title>
<path fill="none" stroke="black" d="M147.119,-148.161C125.774,-137.011 94.6717,-120.763 71.0773,-108.438"/>
<polygon fill="black" stroke="black" points="72.6026,-105.286 62.1185,-103.758 69.3614,-111.49 72.6026,-105.286"/>
</g>
<!-- n3 -->
<g id="node4" class="node"><title>n3</title>
<ellipse fill="none" stroke="black" cx="120.697" cy="-90" rx="27" ry="18"/>
<text text-anchor="middle" x="120.697" y="-86.3" font-family="Times New Roman,serif" font-size="14.00">(</text>
</g>
<!-- n1&#45;&gt;n3 -->
<g id="edge3" class="edge"><title>n1&#45;&gt;n3</title>
<path fill="none" stroke="black" d="M159.868,-144.765C153.405,-135.893 145.277,-124.738 138.103,-114.892"/>
<polygon fill="black" stroke="black" points="140.828,-112.687 132.11,-106.666 135.17,-116.809 140.828,-112.687"/>
</g>
<!-- n4 -->
<g id="node5" class="node"><title>n4</title>
<ellipse fill="none" stroke="black" cx="223.697" cy="-90" rx="57.6901" ry="18"/>
<text text-anchor="middle" x="223.697" y="-86.3" font-family="Times New Roman,serif" font-size="14.00">PRIMITIVO</text>
</g>
<!-- n1&#45;&gt;n4 -->
<g id="edge4" class="edge"><title>n1&#45;&gt;n4</title>
<path fill="none" stroke="black" d="M183.757,-144.765C190.162,-136.143 198.169,-125.365 205.328,-115.727"/>
<polygon fill="black" stroke="black" points="208.187,-117.748 211.34,-107.633 202.568,-113.574 208.187,-117.748"/>
</g>
<!-- n6 -->
<g id="node7" class="node"><title>n6</title>
<ellipse fill="none" stroke="black" cx="326.697" cy="-90" rx="27" ry="18"/>
<text text-anchor="middle" x="326.697" y="-86.3" font-family="Times New Roman,serif" font-size="14.00">)</text>
</g>
<!-- n1&#45;&gt;n6 -->
<g id="edge6" class="edge"><title>n1&#45;&gt;n6</title>
<path fill="none" stroke="black" d="M198.713,-149.172C222.882,-138.541 259.245,-122.428 290.697,-108 292.487,-107.179 294.325,-106.329 296.178,-105.469"/>
<polygon fill="black" stroke="black" points="297.84,-108.556 305.413,-101.146 294.872,-102.216 297.84,-108.556"/>
</g>
<!-- n5 -->
<g id="node6" class="node"><title>n5</title>
<ellipse fill="none" stroke="black" cx="223.697" cy="-18" rx="27" ry="18"/>
<text text-anchor="middle" x="223.697" y="-14.3" font-family="Times New Roman,serif" font-size="14.00">hola</text>
</g>
<!-- n4&#45;&gt;n5 -->
<g id="edge5" class="edge"><title>n4&#45;&gt;n5</title>
<path fill="none" stroke="black" d="M223.697,-71.6966C223.697,-63.9827 223.697,-54.7125 223.697,-46.1124"/>
<polygon fill="black" stroke="black" points="227.197,-46.1043 223.697,-36.1043 220.197,-46.1044 227.197,-46.1043"/>
</g>
</g>
</svg>
